<?xml version="1.0" encoding="utf-8"?>
<!-- Generated by IcoMoon.io -->
<!DOCTYPE svg PUBLIC "-//W3C//DTD SVG 1.1//EN" "http://www.w3.org/Graphics/SVG/1.1/DTD/svg11.dtd">
<svg version="1.1" xmlns="http://www.w3.org/2000/svg" xmlns:xlink="http://www.w3.org/1999/xlink" width="512" height="512" viewBox="0 0 512 512">
<g>
</g>
	<path d="M217.17 80.968l14.5-9.216 34.57 55.522-14.582 8.561z" fill="#000000" />
	<path d="M140.595 155.003l8.755-14.838 55.931 34.376-8.775 14.817z" fill="#000000" />
	<path d="M117.013 263.486l-0.676-17.531 65.351-2.018 0.686 17.52z" fill="#000000" />
	<path d="M499.046 274.934l-3.358 17.51-64.010-12.103 3.358-16.855z" fill="#000000" />
	<path d="M482.222 165.775l6.738 16.179-59.955 24.935-6.759-15.493z" fill="#000000" />
	<path d="M407.429 83.569l14.817 9.431-36.382 54.569-14.142-9.431z" fill="#000000" />
	<path d="M300.267 56.638h17.541v65.341h-17.541v-65.341z" fill="#000000" />
	<path d="M314.050 262.769c0 7.117-1.27 14.224-3.154 20.152 8.151-5.929 18.8-9.493 30.085-9.493 27.423 0 48.752 20.224 49.91 45.281 13.721-18.361 21.975-41.052 21.975-65.587 0-60.56-49.634-110.213-110.192-110.213-44.831 0-83.589 27.218-100.762 65.874 11.582-8.1 25.815-12.933 41.298-12.933 39.486 0 70.841 30.208 70.841 66.918z" fill="#000000" />
	<path d="M244.685 202.476c33.956 0 61.584 25.866 61.584 57.661 0 5.694-0.962 11.848-2.704 17.337l-8.54 26.829 22.794-16.548c6.841-4.966 15.596-7.7 24.647-7.7 22.917 0 40.878 16.752 40.878 38.134 0 2.846 0 6.103-0.717 8.13l-5.755 16.067c-0.062 0.021 16.558-3.952 16.558-3.952l1.321-0.327c1.741-0.409 2.539-0.594 3.481-0.594 11.766 0 22.087 9.523 22.087 20.357 0 10.711-10.117 19.763-22.087 19.763-4.854 0-8.581-0.85-11.079-2.56l-7.741-5.243-5.161 7.772c-9.421 14.111-25.508 22.538-43.070 22.538-14.531 0-27.454-5.223-37.366-15.084l-5.397-5.366-6.298 4.281c-7.312 4.935-16.988 7.946-27.249 8.499l-8.766 0.45v8.776c0 1.639 0.41 2.959 0.645 3.738 0.082 0.246-0.020-0.174-0.020-0.798 0 17.756-15.81 32.215-35.236 32.215-12.871 0-24.699-6.615-30.863-17.285l-6.206-10.721-8.54 9.022c-9.799 10.353-22.548 16.057-35.87 16.057-25.323 0-45.927-19.486-45.927-43.449 0-7.373 1.864-14.224 5.673-20.9l1.219-2.14v-14.521c0-0.604-11.663 2.55-11.663 2.55-3.625 0.973-7.239 1.444-11.367 1.444-19.794 0-36.495-15.555-36.495-33.945 0-18.75 16.374-33.997 36.495-33.997 6.83 0 13.424 1.792 19.036 5.192l10.475 6.298 3.225-11.786c4.69-17.183 20.736-28.733 39.946-28.733 10.373 0 20.306 3.471 27.996 9.759l15.104 12.349v-21.883c0.010-31.805 27.351-57.682 60.948-57.682zM165.243 260.147v2.365l15.114-7.158c-10.977-8.99-25.088-13.936-39.71-13.936-27.668 0-50.893 17.029-57.805 42.353l13.691-5.478c-8.499-5.13-18.391-7.844-28.59-7.844-30.331 0-54.999 23.562-54.999 52.5 0 28.907 24.668 52.45 54.999 52.45 5.806 0 10.957-0.666 16.2-2.079l-11.663-8.94 1.219-3.993c-5.458 9.564-8.11 19.405-8.11 30.085 0 34.151 28.907 61.952 64.43 61.952 18.473 0 35.983-7.772 49.305-21.842l-14.725-1.741c9.472 16.374 27.422 26.522 46.879 26.522 29.635 0 53.74-22.743 53.74-50.709 0-2.089-0.533-3.789-0.819-4.7-0.010-0.051 0.195 0.707 0.195 1.762l-8.775 9.226c13.588-0.686 26.593-4.823 36.669-11.653l-11.714-1.106c13.455 13.394 30.884 20.47 50.411 20.47 23.747 0 45.609-11.5 58.46-30.802l-12.902 2.529c5.642 3.83 12.861 5.765 21.494 5.765 22.385 0 40.591-17.162 40.591-38.257 0-21.074-18.586-38.861-40.591-38.861-3.205 0-5.673 0.594-7.854 1.116l-1.147 0.266 10.824 12.124c1.792-5.038 1.792-10.189 1.792-14.336 0-31.222-26.644-56.627-59.382-56.627-12.933 0-25.538 3.993-35.522 11.233l14.244 10.281c2.325-7.24 3.584-15.39 3.584-22.938 0-41.994-35.911-76.165-80.077-76.165-43.817-0.010-79.452 34.171-79.452 76.165z" fill="#000000" />
</svg>
